<?xml version="1.0" encoding="iso-8859-1"?>
<!-- Uploaded to: SVG Repo, www.svgrepo.com, Generator: SVG Repo Mixer Tools -->
<svg height="800px" width="800px" version="1.1" id="Layer_1" xmlns="http://www.w3.org/2000/svg" xmlns:xlink="http://www.w3.org/1999/xlink" 
	 viewBox="0 0 504.32 504.32" xml:space="preserve">
<g transform="translate(1 1)">
	<path style="fill:#ECF4F7;" d="M276.333,327.96l0.853,136.533c0,18.773-17.92,34.133-34.987,34.133H33.987
		c-17.067,0-30.72-15.36-30.72-34.133v-153.6c0-18.773,13.653-34.133,30.72-34.133h293.547L276.333,327.96z"/>
	<path style="fill:#FFD0A1;" d="M498.2,336.493v17.067c0,4.267-3.413,8.533-8.533,8.533c0,17.067-8.533,34.133-8.533,34.133
		c-8.533,17.067-17.92,34.133-51.2,34.133s-42.667-17.067-51.2-34.133c0,0-8.533-17.067-8.533-34.133
		c-5.12,0-8.533-4.267-8.533-8.533v-17.067c0-4.267,3.413-8.533,8.533-8.533v-8.533c0-23.893,18.773-42.667,42.667-42.667H447
		c23.893,0,42.667,18.773,42.667,42.667v8.533C494.787,327.96,498.2,332.227,498.2,336.493z M139.8,63.427v17.067
		c0,4.267-4.267,8.533-8.533,8.533c0,17.067-8.533,34.133-8.533,34.133c-8.533,17.067-17.92,34.133-51.2,34.133
		s-42.667-17.067-51.2-34.133c0,0-8.533-17.067-8.533-34.133c-4.267,0-8.533-4.267-8.533-8.533V63.427
		c0-4.267,4.267-8.533,8.533-8.533V46.36c0-23.893,18.773-42.667,42.667-42.667H88.6c23.893,0,42.667,18.773,42.667,42.667v8.533
		C135.533,54.893,139.8,59.16,139.8,63.427z"/>
	<path style="fill:#FF7474;" d="M225.133,54.893l-51.2-51.2h290.133c18.773,0,34.133,15.36,34.133,34.133v153.6
		c0,18.773-15.36,34.133-34.133,34.133h-204.8c-18.773,0-34.133-15.36-34.133-34.133V54.893z"/>
</g>
<path style="fill:#51565F;" d="M243.2,503.893H34.987C15.36,503.893,0,486.827,0,465.493v-153.6c0-21.333,16.213-38.4,34.987-38.4
	h293.547c1.707,0,3.413,0.853,4.267,2.56c0.853,1.707,0,3.413-0.853,4.267l-67.413,68.267c-1.707,1.707-4.267,1.707-5.973,0
	c-1.707-1.707-1.707-4.267,0-5.973l60.587-60.587H35.84c-14.507,0-26.453,13.653-26.453,29.867v153.6
	c0,16.213,11.947,29.867,26.453,29.867h208.213c14.507,0,30.72-12.8,30.72-29.867l-0.853-93.867c0-2.56,1.707-4.267,4.267-4.267l0,0
	c2.56,0,4.267,1.707,4.267,4.267l0.853,93.867C282.453,487.68,261.12,503.893,243.2,503.893z M430.933,435.627
	c-36.693,0-46.933-21.333-54.613-36.693c0-0.853-7.68-16.213-8.533-32.427c-5.12-1.707-8.533-6.827-8.533-11.947v-17.067
	c0-5.973,3.413-10.24,8.533-11.947v-5.12c0-25.6,21.333-46.933,46.933-46.933h34.133c25.6,0,46.933,21.333,46.933,46.933v5.12
	c5.12,1.707,8.533,6.827,8.533,11.947v17.067c0,5.973-3.413,10.24-8.533,11.947c-0.853,16.213-8.533,31.573-8.533,32.427
	C477.867,414.293,467.627,435.627,430.933,435.627z M413.867,282.027c-21.333,0-38.4,17.067-38.4,38.4v8.533
	c0,2.56-1.707,4.267-4.267,4.267s-4.267,1.707-4.267,4.267v17.067c0,2.56,1.707,4.267,4.267,4.267c0.853,0,2.56,0.853,3.413,0.853
	c0.853,0,0.853,1.707,0.853,3.413c0,16.213,7.68,32.427,7.68,32.427c9.387,18.773,17.92,31.573,47.787,31.573
	s38.4-12.8,47.787-31.573c0,0,7.68-16.213,7.68-32.427c0-2.56,1.707-4.267,4.267-4.267s4.267-1.707,4.267-4.267v-17.067
	c0-2.56-1.707-4.267-4.267-4.267s-4.267-1.707-4.267-4.267v-8.533c0-21.333-17.067-38.4-38.4-38.4H413.867z M209.067,418.56H140.8
	c-2.56,0-4.267-1.707-4.267-4.267c0-2.56,1.707-4.267,4.267-4.267h68.267c2.56,0,4.267,1.707,4.267,4.267
	C213.333,416.853,211.627,418.56,209.067,418.56z M106.667,418.56H72.533c-2.56,0-4.267-1.707-4.267-4.267
	c0-2.56,1.707-4.267,4.267-4.267h34.133c2.56,0,4.267,1.707,4.267,4.267C110.933,416.853,109.227,418.56,106.667,418.56z
	 M174.933,367.36h-102.4c-2.56,0-4.267-1.707-4.267-4.267c0-2.56,1.707-4.267,4.267-4.267h102.4c2.56,0,4.267,1.707,4.267,4.267
	C179.2,365.653,177.493,367.36,174.933,367.36z M456.533,350.293H448c-2.56,0-4.267-1.707-4.267-4.267
	c0-2.56,1.707-4.267,4.267-4.267h8.533c2.56,0,4.267,1.707,4.267,4.267C460.8,348.587,459.093,350.293,456.533,350.293z
	 M413.867,350.293h-8.533c-2.56,0-4.267-1.707-4.267-4.267c0-2.56,1.707-4.267,4.267-4.267h8.533c2.56,0,4.267,1.707,4.267,4.267
	C418.133,348.587,416.427,350.293,413.867,350.293z M465.067,230.827h-204.8c-21.333,0-38.4-17.067-38.4-38.4V98.56
	c0-2.56,1.707-4.267,4.267-4.267S230.4,96,230.4,98.56v93.867c0,16.213,13.653,29.867,29.867,29.867h204.8
	c16.213,0,29.867-13.653,29.867-29.867v-153.6c0-16.213-13.653-29.867-29.867-29.867H185.173l60.587,60.587
	c1.707,1.707,1.707,4.267,0,5.973s-4.267,1.707-5.973,0L171.52,7.254c-0.853-0.853-1.707-3.413-0.853-4.267
	c0.853-1.707,2.56-2.56,4.267-2.56h290.133c21.333,0,38.4,17.067,38.4,38.4v153.6C503.467,213.76,486.4,230.827,465.067,230.827z
	 M72.533,162.56c-36.693,0-46.933-21.333-54.613-36.693c0-0.853-7.68-16.213-8.533-32.427c-5.12-1.707-8.533-6.827-8.533-11.947
	V64.427c0-5.973,3.413-10.24,8.533-11.947v-5.12c0-25.6,21.333-46.933,46.933-46.933h34.133c25.6,0,46.933,21.333,46.933,46.933
	v5.12c5.12,1.707,8.533,6.827,8.533,11.947v17.067c0,5.973-3.413,10.24-8.533,11.947c-0.853,16.213-8.533,31.573-8.533,32.427
	C119.467,141.227,109.227,162.56,72.533,162.56z M55.467,8.96c-21.333,0-38.4,17.067-38.4,38.4v8.533
	c0,2.56-1.707,4.267-4.267,4.267s-4.267,1.707-4.267,4.267v17.067c0,2.56,1.707,4.267,4.267,4.267s4.267,1.707,4.267,4.267
	c0,16.213,7.68,32.427,7.68,32.427c9.387,18.773,17.92,31.573,47.787,31.573s38.4-12.8,47.787-31.573c0,0,7.68-16.213,7.68-32.427
	c0-2.56,1.707-4.267,4.267-4.267c2.56,0,4.267-1.707,4.267-4.267V64.427c0-2.56-1.707-4.267-4.267-4.267
	c-2.56,0-4.267-1.707-4.267-4.267V47.36c0-21.333-17.067-38.4-38.4-38.4H55.467z M430.933,145.493h-68.267
	c-2.56,0-4.267-1.707-4.267-4.267s1.707-4.267,4.267-4.267h68.267c2.56,0,4.267,1.707,4.267,4.267S433.493,145.493,430.933,145.493z
	 M328.533,145.493H294.4c-2.56,0-4.267-1.707-4.267-4.267s1.707-4.267,4.267-4.267h34.133c2.56,0,4.267,1.707,4.267,4.267
	S331.093,145.493,328.533,145.493z M396.8,94.293H294.4c-2.56,0-4.267-1.707-4.267-4.267c0-2.56,1.707-4.267,4.267-4.267h102.4
	c2.56,0,4.267,1.707,4.267,4.267C401.067,92.587,399.36,94.293,396.8,94.293z M98.133,77.227H89.6c-2.56,0-4.267-1.707-4.267-4.267
	s1.707-4.267,4.267-4.267h8.533c2.56,0,4.267,1.707,4.267,4.267S100.693,77.227,98.133,77.227z M55.467,77.227h-8.533
	c-2.56,0-4.267-1.707-4.267-4.267s1.707-4.267,4.267-4.267h8.533c2.56,0,4.267,1.707,4.267,4.267S58.027,77.227,55.467,77.227z"/>
</svg>